<svg id="Consileon-Logo" xmlns="http://www.w3.org/2000/svg" width="240" height="31" viewBox="0 0 240 31">
  <metadata><?xpacket begin="﻿" id="W5M0MpCehiHzreSzNTczkc9d"?>
<x:xmpmeta xmlns:x="adobe:ns:meta/" x:xmptk="Adobe XMP Core 5.6-c140 79.160451, 2017/05/06-01:08:21        ">
   <rdf:RDF xmlns:rdf="http://www.w3.org/1999/02/22-rdf-syntax-ns#">
      <rdf:Description rdf:about=""/>
   </rdf:RDF>
</x:xmpmeta>
                                                                                                    
                                                                                                    
                                                                                                    
                                                                                                    
                                                                                                    
                                                                                                    
                                                                                                    
                                                                                                    
                                                                                                    
                                                                                                    
                                                                                                    
                                                                                                    
                                                                                                    
                                                                                                    
                                                                                                    
                                                                                                    
                                                                                                    
                                                                                                    
                                                                                                    
                                                                                                    
                           
<?xpacket end="w"?></metadata>
<defs>
    <style>
      .cls-1 {
        fill: #1a233b;
      }

      .cls-1, .cls-2 {
        fill-rule: evenodd;
      }

      .cls-2 {
        fill: #c03;
      }
    </style>
  </defs>
  <path id="triangles" class="cls-1" d="M390.307,55.034V69.156H376.025C376.025,62.566,383.007,55.034,390.307,55.034Zm0,30.965V71.877H376.025C376.025,78.467,383.007,86,390.307,86Zm2.751,0V71.877H407.34C407.34,78.467,400.357,86,393.058,86Z" transform="translate(-345 -55)"/>
  <path id="square" class="cls-2" d="M393.062,55.031h14.282V69.125H393.062V55.031Z" transform="translate(-345 -55)"/>
  <path id="Consileon" class="cls-1" d="M360.361,85.924c8.422,0,12.738-5.524,13.881-10.086l-5.459-1.632a8.321,8.321,0,0,1-8.422,6.068c-4.825,0-9.311-3.474-9.311-9.793,0-6.737,4.74-9.918,9.226-9.918,5.206,0,7.533,3.139,8.253,5.984l5.5-1.715C372.846,60.02,368.571,55,360.276,55A15.06,15.06,0,0,0,345,70.481C345,79.939,351.981,85.924,360.361,85.924Zm76.516-.628V55.626h-5.84V75.252L418.552,55.626h-7.279V85.3h5.84V64.246L430.741,85.3h6.136Zm26.2-22.6C462.4,59.35,459.6,55,452.325,55c-5.672,0-10.454,4.018-10.454,9.291,0,4.477,3.09,7.532,7.872,8.495l4.19,0.837c2.327,0.46,3.639,1.8,3.639,3.515,0,2.092-1.735,3.641-4.867,3.641-4.232,0-6.305-2.637-6.559-5.566l-5.417,1.423c0.465,4.227,3.978,9.29,11.934,9.29,6.983,0,10.834-4.6,10.834-9.165,0-4.185-2.92-7.7-8.379-8.746l-4.19-.8c-2.2-.419-3.259-1.716-3.259-3.348,0-1.967,1.862-3.767,4.7-3.767,3.809,0,5.163,2.553,5.459,4.185Zm10.453,22.6V55.626H467.6V85.3h5.925Zm25.223,0V79.772H485.376V55.626h-5.84V85.3H498.75Zm22.43,0v-5.44H508.23V72.992h11.723V67.845H508.23v-6.78h12.95v-5.44H502.389V85.3H521.18Zm9.183-14.856c0-6.7,4.74-9.876,9.353-9.876,4.655,0,9.4,3.181,9.4,9.876s-4.741,9.876-9.4,9.876C535.1,80.316,530.363,77.136,530.363,70.44Zm-6.052.042c0,9.542,7.279,15.442,15.4,15.442,8.168,0,15.447-5.9,15.447-15.442C555.163,60.9,547.884,55,539.716,55,531.59,55,524.311,60.9,524.311,70.481ZM585,85.3V55.626h-5.841V75.252L566.674,55.626H559.4V85.3h5.84V64.246L578.863,85.3H585Z" transform="translate(-345 -55)"/>
</svg>
